HIERARCHY
ROOT Hip
{
	OFFSET	0.0000	0.0000	0.0000
	CHANNELS 6 Xposition Yposition Zposition Xrotation Yrotation Zrotation
	JOINT LowerSpine
	{
		OFFSET	0.0000	9.2812	-5.5247
		CHANNELS 3 Xrotation Yrotation Zrotation
		JOINT MiddleSpine
		{
			OFFSET	0.0000	8.4698	0.3983
			CHANNELS 3 Xrotation Yrotation Zrotation
			JOINT Chest
			{
				OFFSET	0.0000	10.4803	-2.0995
				CHANNELS 3 Xrotation Yrotation Zrotation
				JOINT Neck
				{
					OFFSET	0.0000	23.6171	-0.4420
					CHANNELS 3 Xrotation Yrotation Zrotation
					JOINT Head
					{
						OFFSET	-0.0001	13.3369	3.6276
						CHANNELS 3 Xrotation Yrotation Zrotation
						End Site
						{
							OFFSET	0.0001	18.6349	0.5563
						}
					}
				}
				JOINT LClavicle
				{
					OFFSET	2.1459	22.7917	7.0277
					CHANNELS 3 Xrotation Yrotation Zrotation
					JOINT LShoulder
					{
						OFFSET	12.5367	3.2691	-5.2898
						CHANNELS 3 Xrotation Yrotation Zrotation
						JOINT LForearm
						{
							OFFSET	29.5893	-0.1049	-0.2564
							CHANNELS 3 Xrotation Yrotation Zrotation
							JOINT LHand
							{
								OFFSET	24.6837	0.0716	-0.1479
								CHANNELS 3 Xrotation Yrotation Zrotation
								JOINT LFinger1
								{
									OFFSET	9.5667	0.8367	2.6571
									CHANNELS 3 Xrotation Yrotation Zrotation
									JOINT LFinger11
									{
										OFFSET	3.5784	-0.8726	0.6305
										CHANNELS 3 Xrotation Yrotation Zrotation
										JOINT LFinger12
										{
											OFFSET	2.4429	-0.5958	0.4306
											CHANNELS 3 Xrotation Yrotation Zrotation
											End Site
											{
												OFFSET	1.7384	-0.5189	0.2820
											}
										}
									}
								}
								JOINT LFinger2
								{
									OFFSET	9.7095	0.9662	0.2313
									CHANNELS 3 Xrotation Yrotation Zrotation
									JOINT LFinger21
									{
										OFFSET	4.4245	0.0123	-0.0261
										CHANNELS 3 Xrotation Yrotation Zrotation
										JOINT LFinger22
										{
											OFFSET	2.4525	0.0075	-0.0149
											CHANNELS 3 Xrotation Yrotation Zrotation
											End Site
											{
												OFFSET	2.2028	-0.1556	0.0030
											}
										}
									}
								}
								JOINT LFinger3
								{
									OFFSET	9.2018	0.6448	-2.1770
									CHANNELS 3 Xrotation Yrotation Zrotation
									JOINT LFinger31
									{
										OFFSET	4.0148	-0.2033	-0.2514
										CHANNELS 3 Xrotation Yrotation Zrotation
										JOINT LFinger32
										{
											OFFSET	2.2878	-0.1151	-0.1437
											CHANNELS 3 Xrotation Yrotation Zrotation
											End Site
											{
												OFFSET	2.0228	-0.2487	-0.0956
											}
										}
									}
								}
								JOINT LFinger4
								{
									OFFSET	8.5389	-0.6489	-3.7596
									CHANNELS 3 Xrotation Yrotation Zrotation
									JOINT LFinger41
									{
										OFFSET	2.4695	-0.5150	-0.6817
										CHANNELS 3 Xrotation Yrotation Zrotation
										JOINT LFinger42
										{
											OFFSET	1.8109	-0.3771	-0.5002
											CHANNELS 3 Xrotation Yrotation Zrotation
											End Site
											{
												OFFSET	1.6073	-0.4416	-0.3688
											}
										}
									}
								}
								JOINT LFinger0
								{
									OFFSET	1.9790	-1.4979	1.5003
									CHANNELS 3 Xrotation Yrotation Zrotation
									JOINT LFinger01
									{
										OFFSET	3.6846	-1.2100	2.7780
										CHANNELS 3 Xrotation Yrotation Zrotation
										JOINT LFinger02
										{
											OFFSET	2.4262	-0.8682	1.7480
											CHANNELS 3 Xrotation Yrotation Zrotation
											End Site
											{
												OFFSET	1.7842	-0.6142	1.2217
											}
										}
									}
								}
							}
						}
					}
				}
				JOINT RClavicle
				{
					OFFSET	-2.1459	22.7917	7.0277
					CHANNELS 3 Xrotation Yrotation Zrotation
					JOINT RShoulder
					{
						OFFSET	-12.5389	3.2697	-5.2907
						CHANNELS 3 Xrotation Yrotation Zrotation
						JOINT RForearm
						{
							OFFSET	-29.5893	-0.1049	-0.2564
							CHANNELS 3 Xrotation Yrotation Zrotation
							JOINT RHand
							{
								OFFSET	-24.6837	0.0716	-0.1479
								CHANNELS 3 Xrotation Yrotation Zrotation
								JOINT RFinger1
								{
									OFFSET	-9.5668	0.8368	2.6571
									CHANNELS 3 Xrotation Yrotation Zrotation
									JOINT RFinger11
									{
										OFFSET	-3.5784	-0.8726	0.6305
										CHANNELS 3 Xrotation Yrotation Zrotation
										JOINT RFinger12
										{
											OFFSET	-2.4429	-0.5960	0.4306
											CHANNELS 3 Xrotation Yrotation Zrotation
											End Site
											{
												OFFSET	-1.7384	-0.5189	0.2820
											}
										}
									}
								}
								JOINT RFinger2
								{
									OFFSET	-9.7095	0.9662	0.2314
									CHANNELS 3 Xrotation Yrotation Zrotation
									JOINT RFinger21
									{
										OFFSET	-4.4245	0.0124	-0.0261
										CHANNELS 3 Xrotation Yrotation Zrotation
										JOINT RFinger22
										{
											OFFSET	-2.4525	0.0075	-0.0150
											CHANNELS 3 Xrotation Yrotation Zrotation
											End Site
											{
												OFFSET	-2.2028	-0.1556	0.0030
											}
										}
									}
								}
								JOINT RFinger3
								{
									OFFSET	-9.2018	0.6449	-2.1770
									CHANNELS 3 Xrotation Yrotation Zrotation
									JOINT RFinger31
									{
										OFFSET	-4.0148	-0.2033	-0.2514
										CHANNELS 3 Xrotation Yrotation Zrotation
										JOINT RFinger32
										{
											OFFSET	-2.2879	-0.1151	-0.1437
											CHANNELS 3 Xrotation Yrotation Zrotation
											End Site
											{
												OFFSET	-2.0228	-0.2487	-0.0956
											}
										}
									}
								}
								JOINT RFinger4
								{
									OFFSET	-8.5389	-0.6489	-3.7596
									CHANNELS 3 Xrotation Yrotation Zrotation
									JOINT RFinger41
									{
										OFFSET	-2.4695	-0.5150	-0.6817
										CHANNELS 3 Xrotation Yrotation Zrotation
										JOINT RFinger42
										{
											OFFSET	-1.8109	-0.3770	-0.5002
											CHANNELS 3 Xrotation Yrotation Zrotation
											End Site
											{
												OFFSET	-1.6073	-0.4416	-0.3688
											}
										}
									}
								}
								JOINT RFinger0
								{
									OFFSET	-1.9790	-1.4978	1.5002
									CHANNELS 3 Xrotation Yrotation Zrotation
									JOINT RFinger01
									{
										OFFSET	-3.6846	-1.2102	2.7781
										CHANNELS 3 Xrotation Yrotation Zrotation
										JOINT RFinger02
										{
											OFFSET	-2.4262	-0.8681	1.7480
											CHANNELS 3 Xrotation Yrotation Zrotation
											End Site
											{
												OFFSET	-1.7842	-0.6142	1.2217
											}
										}
									}
								}
							}
						}
					}
				}
			}
		}
	}
	JOINT RThigh
	{
		OFFSET	-10.9736	4.1953	-0.9002
		CHANNELS 3 Xrotation Yrotation Zrotation
		JOINT RShin
		{
			OFFSET	-0.7945	-43.1846	0.0000
			CHANNELS 3 Xrotation Yrotation Zrotation
			JOINT RFoot
			{
				OFFSET	0.0000	-42.4047	0.0000
				CHANNELS 3 Xrotation Yrotation Zrotation
				JOINT RToe
				{
					OFFSET	0.0000	-4.6606	9.7460
					CHANNELS 3 Xrotation Yrotation Zrotation
					End Site
					{
						OFFSET	0.0000	0.0000	6.5382
					}
				}
			}
		}
	}
	JOINT LThigh
	{
		OFFSET	10.9735	4.1956	-0.9002
		CHANNELS 3 Xrotation Yrotation Zrotation
		JOINT LShin
		{
			OFFSET	0.7945	-43.1849	0.0000
			CHANNELS 3 Xrotation Yrotation Zrotation
			JOINT LFoot
			{
				OFFSET	0.0000	-42.4047	0.0000
				CHANNELS 3 Xrotation Yrotation Zrotation
				JOINT LToe
				{
					OFFSET	0.0000	-4.6607	9.7461
					CHANNELS 3 Xrotation Yrotation Zrotation
					End Site
					{
						OFFSET	0.0000	0.0000	6.5382
					}
				}
			}
		}
	}
}
MOTION
Frames:	6
Frame Time: 0.0333333000
	-30.4567	77.2746	-57.3766	157.453900	-48.948060	153.796100	0.000000	0.000000	0.000000	-3.199371	-3.747445	2.282883	-10.184900	-12.918340	6.841758	-6.622362	-1.719728	5.132381	-0.924205	-0.120082	3.240504	-0.000854	-0.000031	-2.643575	44.612580	-23.758730	7.652052	179.939700	-32.853100	179.649700	0.000000	0.000000	0.000000	0.000000	0.000000	0.000000	0.000000	0.000000	0.000000	0.000000	0.000000	0.000000	0.000000	0.000000	0.000000	0.000000	0.000000	0.000000	0.000000	0.000000	0.000000	0.000000	0.000000	0.000000	0.000000	0.000000	0.000000	0.000000	0.000000	0.000000	0.000000	0.000000	0.000000	0.000000	0.000000	0.000000	0.000000	0.000000	0.000000	0.000000	0.000000	0.000000	0.000000	0.000000	0.000000	0.000000	0.000000	0.000000	-0.001215	-0.002191	1.045146	22.922150	-10.334220	8.987913	0.000000	0.097588	0.000000	0.000000	0.000000	0.000000	0.000000	0.000000	0.000000	0.000000	0.000000	0.000000	0.000000	0.000000	0.000000	0.000000	0.000000	0.000000	0.000000	0.000000	0.000000	0.000000	0.000000	0.000000	0.000000	0.000000	0.000000	0.000000	0.000000	0.000000	0.000000	0.000000	0.000000	0.000000	0.000000	0.000000	0.000000	0.000000	0.000000	0.000000	0.000000	0.000000	0.000000	0.000000	0.000000	0.000000	0.000000	0.000000	0.000000	0.000000	0.000000	3.688391	0.394229	-3.680805	7.856005	-0.000001	0.000000	0.304389	-0.720844	-0.343154	-16.305750	0.000000	0.000000	-11.563790	2.826370	11.865920	-0.367663	0.000000	0.000000	-3.127124	-0.524045	-0.267597	0.000003	0.000000	0.000000
	-30.5728	77.3084	-57.2976	157.919400	-48.563090	154.555500	0.000000	0.000000	0.000000	-3.207233	-3.592599	2.241950	-10.243140	-12.407860	6.740062	-6.414252	-1.625852	4.892289	-0.291906	-0.132725	3.953946	-0.001592	-0.000057	-2.649369	43.583950	-23.531710	6.729060	179.939500	-32.973580	179.649600	0.000000	0.000000	0.000000	0.000000	0.000000	0.000000	0.000000	0.000000	0.000000	0.000000	0.000000	0.000000	0.000000	0.000000	0.000000	0.000000	0.000000	0.000000	0.000000	0.000000	0.000000	0.000000	0.000000	0.000000	0.000000	0.000000	0.000000	0.000000	0.000000	0.000000	0.000000	0.000000	0.000000	0.000000	0.000000	0.000000	0.000000	0.000000	0.000000	0.000000	0.000000	0.000000	0.000000	0.000000	0.000000	0.000000	0.000000	0.000000	-0.002092	-0.003770	1.051709	22.181080	-10.623090	8.814490	0.000000	0.090861	0.000000	0.000000	0.000000	0.000000	0.000000	0.000000	0.000000	0.000000	0.000000	0.000000	0.000000	0.000000	0.000000	0.000000	0.000000	0.000000	0.000000	0.000000	0.000000	0.000000	0.000000	0.000000	0.000000	0.000000	0.000000	0.000000	0.000000	0.000000	0.000000	0.000000	0.000000	0.000000	0.000000	0.000000	0.000000	0.000000	0.000000	0.000000	0.000000	0.000000	0.000000	0.000000	0.000000	0.000000	0.000000	0.000000	0.000000	0.000000	0.000000	3.474280	0.491047	-4.290335	8.525491	-0.000001	0.000000	0.587266	-0.698907	-0.329352	-16.926760	0.000000	0.000000	-11.299290	3.150710	11.516210	-0.315073	0.000000	0.000000	-3.210493	-0.173545	-0.088981	0.000003	0.000000	0.000000
	-30.6150	77.3305	-57.2523	158.084700	-48.420640	154.832900	0.000000	0.000000	0.000000	-3.201980	-3.541665	2.233967	-10.242070	-12.247430	6.736457	-6.282984	-1.606916	4.854026	-0.067800	-0.130054	4.115840	-0.002330	-0.000084	-2.645289	43.329090	-23.490540	6.431902	179.934600	-33.039450	179.648800	0.000000	0.000000	0.000000	0.000000	0.000000	0.000000	0.000000	0.000000	0.000000	0.000000	0.000000	0.000000	0.000000	0.000000	0.000000	0.000000	0.000000	0.000000	0.000000	0.000000	0.000000	0.000000	0.000000	0.000000	0.000000	0.000000	0.000000	0.000000	0.000000	0.000000	0.000000	0.000000	0.000000	0.000000	0.000000	0.000000	0.000000	0.000000	0.000000	0.000000	0.000000	0.000000	0.000000	0.000000	0.000000	0.000000	0.000000	0.000000	-0.002732	-0.004925	1.058710	21.908630	-10.719000	8.709524	0.000000	0.076974	0.000000	0.000000	0.000000	0.000000	0.000000	0.000000	0.000000	0.000000	0.000000	0.000000	0.000000	0.000000	0.000000	0.000000	0.000000	0.000000	0.000000	0.000000	0.000000	0.000000	0.000000	0.000000	0.000000	0.000000	0.000000	0.000000	0.000000	0.000000	0.000000	0.000000	0.000000	0.000000	0.000000	0.000000	0.000000	0.000000	0.000000	0.000000	0.000000	0.000000	0.000000	0.000000	0.000000	0.000000	0.000000	0.000000	0.000000	0.000000	0.000000	3.272435	0.642242	-4.520131	9.021470	-0.000001	0.000000	0.594183	-0.509834	-0.240731	-17.228510	0.000000	0.000000	-11.252360	3.281075	11.365690	-0.212007	0.000000	0.000000	-3.267674	-0.030287	-0.015486	0.000003	0.000000	0.000000
	-30.6381	77.3266	-57.2361	158.138600	-48.389770	154.939800	0.000000	0.000000	0.000000	-3.198408	-3.539273	2.230082	-10.215580	-12.220880	6.704588	-6.246094	-1.609259	4.865112	-0.061986	-0.128348	4.078191	-0.002571	-0.000093	-2.638256	43.337430	-23.457790	6.353005	179.933100	-33.065610	179.648600	0.000000	0.000000	0.000000	0.000000	0.000000	0.000000	0.000000	0.000000	0.000000	0.000000	0.000000	0.000000	0.000000	0.000000	0.000000	0.000000	0.000000	0.000000	0.000000	0.000000	0.000000	0.000000	0.000000	0.000000	0.000000	0.000000	0.000000	0.000000	0.000000	0.000000	0.000000	0.000000	0.000000	0.000000	0.000000	0.000000	0.000000	0.000000	0.000000	0.000000	0.000000	0.000000	0.000000	0.000000	0.000000	0.000000	0.000000	0.000000	-0.003375	-0.006086	1.074854	21.829130	-10.733770	8.679115	0.000000	0.086124	0.000000	0.000000	0.000000	0.000000	0.000000	0.000000	0.000000	0.000000	0.000000	0.000000	0.000000	0.000000	0.000000	0.000000	0.000000	0.000000	0.000000	0.000000	0.000000	0.000000	0.000000	0.000000	0.000000	0.000000	0.000000	0.000000	0.000000	0.000000	0.000000	0.000000	0.000000	0.000000	0.000000	0.000000	0.000000	0.000000	0.000000	0.000000	0.000000	0.000000	0.000000	0.000000	0.000000	0.000000	0.000000	0.000000	0.000000	0.000000	0.000000	3.199097	0.676493	-4.609427	9.230739	-0.000001	0.000000	0.500339	-0.344128	-0.162762	-17.288400	0.000000	0.000000	-11.238050	3.298497	11.286650	-0.159286	0.000000	0.000000	-3.252698	0.044725	0.022991	0.000003	0.000000	0.000000
	-30.6687	77.3227	-57.2258	158.197100	-48.356070	155.050500	0.000000	0.000000	0.000000	-3.194762	-3.537052	2.226295	-10.202460	-12.213470	6.693202	-6.210803	-1.611945	4.877075	-0.058457	-0.126460	4.032048	-0.003548	-0.000130	-2.611797	43.354910	-23.422730	6.254092	179.932100	-33.057880	179.648500	0.000000	0.000000	0.000000	0.000000	0.000000	0.000000	0.000000	0.000000	0.000000	0.000000	0.000000	0.000000	0.000000	0.000000	0.000000	0.000000	0.000000	0.000000	0.000000	0.000000	0.000000	0.000000	0.000000	0.000000	0.000000	0.000000	0.000000	0.000000	0.000000	0.000000	0.000000	0.000000	0.000000	0.000000	0.000000	0.000000	0.000000	0.000000	0.000000	0.000000	0.000000	0.000000	0.000000	0.000000	0.000000	0.000000	0.000000	0.000000	-0.004221	-0.007615	1.095291	21.737990	-10.760420	8.655555	0.000000	0.130861	0.000000	0.000000	0.000000	0.000000	0.000000	0.000000	0.000000	0.000000	0.000000	0.000000	0.000000	0.000000	0.000000	0.000000	0.000000	0.000000	0.000000	0.000000	0.000000	0.000000	0.000000	0.000000	0.000000	0.000000	0.000000	0.000000	0.000000	0.000000	0.000000	0.000000	0.000000	0.000000	0.000000	0.000000	0.000000	0.000000	0.000000	0.000000	0.000000	0.000000	0.000000	0.000000	0.000000	0.000000	0.000000	0.000000	0.000000	0.000000	0.000000	3.189411	0.704779	-4.690848	9.348503	-0.000001	0.000000	0.406171	-0.269123	-0.127724	-17.263310	0.000000	0.000000	-11.226000	3.316615	11.206530	-0.087343	0.000000	0.000000	-3.228250	0.098137	0.050358	0.000003	0.000000	0.000000
	-30.7015	77.3167	-57.2192	158.258500	-48.321290	155.159800	0.000000	0.000000	0.000000	-3.186206	-3.534557	2.219663	-10.188260	-12.208340	6.683197	-6.179202	-1.615039	4.889879	-0.058089	-0.124486	3.978853	-0.004724	-0.000174	-2.583214	43.372840	-23.365950	6.154432	179.931900	-33.014740	179.648500	0.000000	0.000000	0.000000	0.000000	0.000000	0.000000	0.000000	0.000000	0.000000	0.000000	0.000000	0.000000	0.000000	0.000000	0.000000	0.000000	0.000000	0.000000	0.000000	0.000000	0.000000	0.000000	0.000000	0.000000	0.000000	0.000000	0.000000	0.000000	0.000000	0.000000	0.000000	0.000000	0.000000	0.000000	0.000000	0.000000	0.000000	0.000000	0.000000	0.000000	0.000000	0.000000	0.000000	0.000000	0.000000	0.000000	0.000000	0.000000	-0.005430	-0.009803	1.123494	21.620310	-10.779430	8.611433	0.000000	0.170717	0.000000	0.000000	0.000000	0.000000	0.000000	0.000000	0.000000	0.000000	0.000000	0.000000	0.000000	0.000000	0.000000	0.000000	0.000000	0.000000	0.000000	0.000000	0.000000	0.000000	0.000000	0.000000	0.000000	0.000000	0.000000	0.000000	0.000000	0.000000	0.000000	0.000000	0.000000	0.000000	0.000000	0.000000	0.000000	0.000000	0.000000	0.000000	0.000000	0.000000	0.000000	0.000000	0.000000	0.000000	0.000000	0.000000	0.000000	0.000000	0.000000	3.174924	0.731020	-4.754286	9.458307	-0.000001	0.000000	0.315860	-0.334698	-0.158937	-17.212630	0.000000	0.000000	-11.221340	3.336070	11.132070	0.004155	0.000000	0.000000	-3.248034	0.138057	0.070909	0.000003	0.000000	0.000000
